<?xml version="1.0" standalone="no"?>
<!DOCTYPE svg PUBLIC "-//W3C//DTD SVG 20010904//EN"
 "http://www.w3.org/TR/2001/REC-SVG-20010904/DTD/svg10.dtd">
<svg version="1.0" xmlns="http://www.w3.org/2000/svg"
 width="16px" height="16px" viewBox="0 0 316 316"
 preserveAspectRatio="xMidYMid meet">
 
  <g transform="translate(0,316) scale(0.1,-0.1)"
  fill="#333" stroke="none">
    <path d="M912 3062 c18 -32 83 -145 143 -250 l110 -191 405 0 405 0 95 171
    c52 95 114 207 138 250 l43 78 -686 0 -686 0 33 -58z"/>
    <path d="M2311 2780 l-143 -250 203 -355 204 -354 293 -1 293 0 -33 58 c-171
    302 -664 1151 -668 1151 -3 0 -70 -112 -149 -249z"/>
    <path d="M343 2407 l-342 -592 82 -7 c45 -3 176 -6 292 -7 l210 0 199 349 198
    350 -143 249 c-79 138 -146 250 -149 250 -3 0 -159 -266 -347 -592z"/>
    <path d="M2381 1245 l-203 -355 143 -250 c79 -137 146 -249 149 -249 4 0 473
    819 653 1141 l39 68 -289 0 -288 -1 -204 -354z"/>
    <path d="M27 1551 c10 -16 97 -153 193 -305 l175 -275 293 -1 294 0 -19 29
    c-10 16 -97 153 -193 305 l-175 275 -293 1 -294 0 19 -29z"/>
    <path d="M250 444 c-118 -185 -223 -349 -233 -365 l-19 -29 354 0 353 1 69
    114 68 115 714 2 713 3 -137 247 -137 247 -765 0 -765 0 -215 -335z"/>
  </g>
</svg>
