<?xml version="1.0" standalone="no"?>
<!DOCTYPE svg PUBLIC "-//W3C//DTD SVG 20010904//EN"
 "http://www.w3.org/TR/2001/REC-SVG-20010904/DTD/svg10.dtd">
<svg version="1.0" xmlns="http://www.w3.org/2000/svg"
 width="16px" height="16px" viewBox="0 0 318 318"
 preserveAspectRatio="xMidYMid meet">

<g transform="translate(0,318) scale(0.1,-0.1)"
fill="#333" stroke="none">
  <path d="M922 3062 c18 -32 83 -145 143 -250 l110 -191 415 0 415 0 110 191
  c61 105 125 218 143 250 l33 58 -701 0 -701 0 33 -58z"/>
  <path d="M380 2463 c-173 -301 -330 -573 -348 -605 l-33 -58 293 0 293 1 203
  354 204 355 -144 250 c-78 137 -145 249 -148 249 -3 0 -147 -246 -320 -546z"/>
  <path d="M2332 2760 l-144 -250 204 -355 203 -354 293 -1 293 0 -33 58 c-171
  302 -664 1151 -668 1151 -3 0 -70 -112 -148 -249z"/>
  <path d="M32 1522 c18 -32 96 -167 173 -300 l140 -241 293 -1 293 0 -15 28
  c-8 15 -86 149 -173 297 l-158 270 -293 3 -293 2 33 -58z"/>
  <path d="M2391 1225 l-203 -355 143 -250 c79 -137 146 -249 149 -249 4 0 502
  859 668 1151 l33 58 -293 0 -293 -1 -204 -354z"/>
  <path d="M250 438 c-118 -177 -223 -334 -233 -350 l-19 -28 374 0 373 1 88 99
  89 100 683 2 684 3 -142 247 -142 247 -770 0 -770 0 -215 -321z"/>
</g>
</svg>
